<svg width="18" height="18" viewBox="0 0 18 18" fill="none" xmlns="http://www.w3.org/2000/svg">
<g clip-path="url(#clip0_63_404)">
<path d="M3.86809 9.33544L1.13382 6.60117C0.403466 5.87082 0.0012207 4.89978 0.0012207 3.86687C0.0012207 1.73468 1.7359 0 3.86809 0C6.00031 0 7.73495 1.73468 7.73495 3.86687C7.73495 4.89978 7.33275 5.87082 6.60236 6.60117L3.86809 9.33544ZM3.86809 1.05456C2.31739 1.05456 1.05578 2.31617 1.05578 3.86687C1.05578 4.61807 1.34832 5.32431 1.8795 5.85549L3.86809 7.84408L5.85671 5.85549C6.38789 5.32431 6.68043 4.61807 6.68043 3.86687C6.68043 2.31617 5.41882 1.05456 3.86809 1.05456Z" fill="black"/>
<path d="M3.86802 5.62472C2.89885 5.62472 2.11035 4.83623 2.11035 3.86705C2.11035 2.89787 2.89885 2.10938 3.86802 2.10938C4.8372 2.10938 5.6257 2.89787 5.6257 3.86705C5.6257 4.83623 4.8372 5.62472 3.86802 5.62472ZM3.86802 3.16394C3.48033 3.16394 3.16491 3.47936 3.16491 3.86705C3.16491 4.25474 3.48033 4.57016 3.86802 4.57016C4.25572 4.57016 4.57114 4.25474 4.57114 3.86705C4.57114 3.47936 4.25572 3.16394 3.86802 3.16394Z" fill="black"/>
<path d="M15.1867 18L13.198 16.0114C12.6669 15.4802 12.3744 14.774 12.3744 14.0228C12.3744 12.4721 13.636 11.2104 15.1867 11.2104C16.7374 11.2104 17.999 12.4721 17.999 14.0228C17.999 14.7739 17.7065 15.4802 17.1753 16.0114L15.1867 18ZM13.9438 15.2657L15.1867 16.5086L16.4296 15.2657C16.7616 14.9336 16.9444 14.4922 16.9444 14.0227C16.9444 13.0535 16.1559 12.265 15.1867 12.265C14.2175 12.265 13.429 13.0535 13.429 14.0227C13.429 14.4922 13.6118 14.9337 13.9438 15.2657Z" fill="black"/>
<path d="M12.6207 17.9978H6.73438C4.8631 17.9978 3.3407 16.4754 3.3407 14.6042C3.3407 12.7329 4.8631 11.2104 6.73438 11.2104H8.69109C9.26825 11.2104 9.73778 10.7409 9.73778 10.1637C9.73778 9.58659 9.26825 9.11706 8.69109 9.11706H6.64517V8.0625H8.69109C9.84973 8.0625 10.7923 9.0051 10.7923 10.1637C10.7923 11.3224 9.84973 12.265 8.69109 12.265H6.73438C5.44458 12.265 4.39526 13.3143 4.39526 14.6041C4.39526 15.8939 5.44455 16.9433 6.73438 16.9433H12.6207V17.9978H12.6207Z" fill="black"/>
</g>
<defs>
<clipPath id="clip0_63_404">
<rect width="18" height="18" fill="white"/>
</clipPath>
</defs>
</svg>
