<svg width="16" height="16" viewBox="0 0 16 16" fill="none" xmlns="http://www.w3.org/2000/svg">
<path d="M6.85883 16C6.85844 16 6.85795 16 6.85746 16C6.35675 15.9996 5.88591 15.8043 5.53198 15.4498L0.546865 10.4579C-0.182288 9.72744 -0.182288 8.53887 0.546865 7.8085L7.26687 1.07607C7.9594 0.382227 8.88085 0 9.86139 0H14.1249C15.1587 0 16 0.841016 16 1.875V6.1251C16 7.10488 15.6181 8.02588 14.9249 8.71826L8.18402 15.4517C7.8299 15.8053 7.35926 16 6.85883 16ZM9.86139 1.25C9.21525 1.25 8.60808 1.50186 8.1517 1.95908L1.43159 8.6915C1.18851 8.93506 1.18851 9.33115 1.43159 9.57471L6.41671 14.5666C6.53459 14.6847 6.69144 14.7499 6.85844 14.75H6.85893C7.02574 14.75 7.18258 14.6851 7.30056 14.5673L14.0415 7.83398C14.4983 7.37773 14.7499 6.7707 14.7499 6.1251V1.875C14.7499 1.53037 14.4695 1.25 14.1249 1.25H9.86139ZM11.4683 6.34375C10.4344 6.34375 9.5932 5.50273 9.5932 4.46875C9.5932 3.43477 10.4344 2.59375 11.4683 2.59375C12.5023 2.59375 13.3435 3.43477 13.3435 4.46875C13.3435 5.50273 12.5023 6.34375 11.4683 6.34375ZM11.4683 3.84375C11.1237 3.84375 10.8433 4.12412 10.8433 4.46875C10.8433 4.81338 11.1237 5.09375 11.4683 5.09375C11.8131 5.09375 12.0934 4.81338 12.0934 4.46875C12.0934 4.12412 11.8131 3.84375 11.4683 3.84375Z" fill="black"/>
</svg>
